<?xml version="1.0" encoding="iso-8859-1"?>
<!-- Generator: Adobe Illustrator 19.0.0, SVG Export Plug-In . SVG Version: 6.00 Build 0)  -->
<svg version="1.1" id="Capa_1" xmlns="http://www.w3.org/2000/svg" xmlns:xlink="http://www.w3.org/1999/xlink" x="0px" y="0px"
	 viewBox="0 0 512 512" style="enable-background:new 0 0 512 512;" xml:space="preserve">
<path style="fill:#6DC82A;" d="M162.401,93.292c7.707-9.791,27.199-38.53,17.396-68.217c-1.201-3.637,2.585-6.929,6.051-5.3
	c16.036,7.54,44.714,14.89,61.181-17.384c1.918-3.758,7.485-2.898,8.238,1.254c3.43,18.907,14.212,45.056,47.527,46.892
	c3.981,0.219,5.61,5.248,2.524,7.771c-15.09,12.339-38.935,37.217-31.362,66.681c0.715,2.784-1.388,5.493-4.261,5.478
	c-13.804-0.069-47.893,2.474-69.939,27.284c-2.654,2.987-7.592,1.074-7.637-2.921c-0.166-14.952-5.137-37.256-28.957-55.338
	C161.211,98.014,160.888,95.214,162.401,93.292z"/>
<path style="fill:#4E901E;" d="M192.25,183.317c-0.22,0-0.441-0.008-0.664-0.028c-4.391-0.362-7.658-4.215-7.296-8.606
	c0.263-3.193,24.108-97.954,48.654-124.234c3.006-3.221,8.055-3.392,11.276-0.385c3.22,3.007,3.392,8.056,0.385,11.276
	c-19.503,20.881-43.093,107.013-44.442,114.937C199.69,180.304,196.266,183.317,192.25,183.317z M200.192,175.993
	c-0.006,0.073-0.013,0.147-0.021,0.22C200.183,176.125,200.188,176.052,200.192,175.993z"/>
<path style="fill:#6DC82A;" d="M126.688,217.271c-11.182-0.738-40.509-0.477-57.255,20.153c-2.398,2.954-7.141,1.809-7.787-1.939
	c-2.629-15.26-11.538-38.192-41.459-35.177c-4.098,0.413-6.413-4.547-3.521-7.478c11.679-11.836,24.109-31.786,10.384-55.865
	c-1.953-3.426,1.196-7.521,4.986-6.431c16.579,4.761,45.254,9.135,62.658-9.993c1.909-2.099,5.273-1.868,6.869,0.479
	c6.959,10.234,25.095,32.625,52.922,36.895c3.905,0.599,5.159,5.587,1.956,7.901c-10.614,7.667-23.585,22.106-25.102,47.38
	C131.194,215.601,129.095,217.43,126.688,217.271z"/>
<path style="fill:#4E901E;" d="M70.732,188.583c-3.555,0-6.896-0.217-9.953-0.698c-4.353-0.684-7.327-4.767-6.643-9.121
	c0.684-4.352,4.769-7.327,9.121-6.643c24.405,3.839,90.935-18.633,97.471-21.565c3.793-1.947,8.478-0.562,10.59,3.185
	c2.163,3.839,0.803,8.705-3.036,10.867C166.043,165.869,103.875,188.583,70.732,188.583z M160.67,150.586
	c-0.091,0.047-0.164,0.088-0.22,0.119C160.523,150.665,160.596,150.625,160.67,150.586z"/>
<path style="fill:#47821C;" d="M250.311,238.625c-1.738,0-3.488-0.565-4.955-1.73c-0.346-0.274-35.082-27.946-74.922-67.759
	C116.689,115.427,79.621,66.296,60.26,23.107c-1.802-4.021-0.004-8.741,4.017-10.544c4.02-1.803,8.742-0.004,10.544,4.017
	c44.387,99.017,179.102,206.743,180.458,207.819c3.45,2.74,4.026,7.758,1.286,11.209
	C254.99,237.591,252.661,238.625,250.311,238.625z"/>
<path style="fill:#424EDE;" d="M262.507,367.254c-9.648,28.062-37.38,44.752-65.676,41.54c-4.415-0.511-8.84-1.5-13.223-3
	c-32.434-11.138-49.688-46.465-38.551-78.899c11.148-32.434,46.465-49.688,78.899-38.54c8.882,3.042,16.616,7.904,22.956,14.02
	C263.709,318.608,270.603,343.691,262.507,367.254z"/>
<path style="fill:#515BE0;" d="M262.507,367.254c-9.648,28.062-37.38,44.752-65.676,41.54
	c-16.807-16.244-23.69-41.327-15.605-64.879c9.648-28.062,37.38-44.763,65.687-41.54
	C263.709,318.608,270.603,343.691,262.507,367.254z"/>
<path style="fill:#7C84E8;" d="M237.328,320.895c-4.042,2.574-8.265,4.617-12.595,6.138c-26.668,9.499-57.294-0.298-73.133-25.19
	c-18.403-28.934-9.882-67.315,19.052-85.718c16.765-10.67,36.7-12.297,54.082-6.138c12.616,4.457,23.903,13.02,31.647,25.19
	C274.783,264.112,266.252,302.492,237.328,320.895z"/>
<path style="fill:#999FED;" d="M237.328,320.895c-4.042,2.574-8.265,4.617-12.595,6.138c-12.616-4.457-23.903-13.02-31.647-25.19
	c-18.403-28.934-9.882-67.315,19.052-85.718c4.042-2.574,8.265-4.617,12.595-6.138c12.616,4.457,23.903,13.02,31.647,25.19
	C274.783,264.112,266.252,302.492,237.328,320.895z"/>
<path style="fill:#2633D8;" d="M481.823,490.139c-4.925,5.797-10.691,10.457-16.967,13.967
	c-21.988,12.308-50.231,10.382-70.559-6.904c-26.115-22.222-29.285-61.411-7.063-87.526c19.552-22.988,52.241-28.2,77.601-13.967
	c3.468,1.936,6.787,4.234,9.925,6.904C500.885,424.824,504.045,464.013,481.823,490.139z"/>
<path style="fill:#3440DB;" d="M481.823,490.139c-4.925,5.797-10.691,10.457-16.967,13.967c-3.457-1.936-6.787-4.234-9.925-6.904
	c-26.115-22.222-29.285-61.411-7.063-87.526c4.925-5.787,10.691-10.457,16.967-13.967c3.468,1.936,6.787,4.234,9.925,6.904
	C500.885,424.824,504.045,464.013,481.823,490.139z"/>
<path style="fill:#424EDE;" d="M383.085,479.842c-1.17,0.67-2.362,1.308-3.585,1.904c-30.806,15.052-67.995,2.287-83.048-28.53
	s-2.276-67.995,28.541-83.048c19.19-9.382,40.859-7.957,58.113,1.904c10.435,5.957,19.265,15.01,24.935,26.626
	C422.497,428.292,411.285,463.747,383.085,479.842z"/>
<path style="fill:#515BE0;" d="M383.085,479.842c-10.435-5.957-19.265-15.01-24.935-26.626
	c-14.456-29.594-3.244-65.049,24.956-81.144c10.435,5.957,19.265,15.01,24.935,26.626
	C422.497,428.292,411.285,463.747,383.085,479.842z"/>
<path style="fill:#424EDE;" d="M400.073,330.682c-3.606,1.766-7.297,3.138-11.031,4.149c-28.179,7.67-58.73-5.478-72.017-32.689
	c-15.052-30.806-2.276-67.995,28.53-83.048c18.701-9.138,39.753-8.021,56.773,1.17c11.021,5.936,20.36,15.265,26.275,27.371
	C443.655,278.441,430.89,315.63,400.073,330.682z"/>
<path style="fill:#515BE0;" d="M400.073,330.682c-3.606,1.766-7.297,3.138-11.031,4.149c-11.021-5.936-20.36-15.265-26.275-27.371
	c-15.052-30.806-2.276-67.995,28.53-83.048c3.606-1.766,7.297-3.138,11.031-4.149c11.021,5.936,20.36,15.265,26.275,27.371
	C443.655,278.441,430.89,315.63,400.073,330.682z"/>
<path style="fill:#424EDE;" d="M319.365,268.696c-4.361,2.776-8.946,4.936-13.637,6.5c-26.424,8.861-56.443-0.989-72.08-25.562
	c-18.414-28.924-9.882-67.304,19.052-85.718c16.414-10.446,35.87-12.223,52.996-6.51c13.063,4.351,24.764,13.042,32.721,25.562
	C356.831,211.902,348.3,250.283,319.365,268.696z"/>
<path style="fill:#515BE0;" d="M319.365,268.696c-4.361,2.776-8.946,4.936-13.637,6.5c-13.052-4.34-24.754-13.042-32.721-25.562
	c-18.414-28.924-9.882-67.304,19.052-85.718c4.361-2.776,8.946-4.936,13.637-6.51c13.063,4.351,24.764,13.042,32.721,25.562
	C356.831,211.902,348.3,250.283,319.365,268.696z"/>
<path style="fill:#2633D8;" d="M318.599,370.477c-17.456,8.531-36.955,8.127-53.305,0.574
	c-12.531-5.776-23.211-15.744-29.743-29.104c-15.052-30.817-2.276-67.995,28.53-83.048c30.817-15.052,67.995-2.276,83.048,28.53
	c0.202,0.404,0.394,0.808,0.574,1.213C361.852,319.214,349.012,355.627,318.599,370.477z"/>
<path style="fill:#3440DB;" d="M318.599,370.477c-17.456,8.531-36.955,8.127-53.305,0.574
	c-14.137-30.572-1.298-66.985,29.104-81.835c17.456-8.521,36.944-8.127,53.305-0.574
	C361.852,319.214,349.012,355.627,318.599,370.477z"/>
<path style="fill:#6E76E5;" d="M412.838,416.942c-2.659,1.298-5.361,2.393-8.106,3.276c-28.966,9.436-61.187-3.659-74.942-31.806
	c-15.063-30.817-2.287-67.995,28.53-83.048c15.052-7.351,31.636-8.063,46.401-3.276c15.467,5.01,28.945,16.052,36.647,31.806
	C456.42,364.711,443.644,401.89,412.838,416.942z"/>
<g>
	<path style="fill:#7C84E8;" d="M412.838,416.942c-2.659,1.298-5.361,2.393-8.106,3.276c-15.467-5.01-28.945-16.052-36.647-31.806
		c-15.063-30.817-2.287-67.995,28.53-83.048c2.659-1.298,5.361-2.393,8.106-3.276c15.467,5.01,28.945,16.052,36.647,31.806
		C456.42,364.711,443.644,401.89,412.838,416.942z"/>
	<path style="fill:#7C84E8;" d="M301.93,457.929c-2.489,1.213-5.01,2.245-7.574,3.096c-29.094,9.776-61.634-3.308-75.474-31.626
		c-15.052-30.817-2.276-67.995,28.541-83.048c15.233-7.446,32.03-8.085,46.933-3.096c15.244,5.085,28.509,16.041,36.115,31.626
		C345.523,405.698,332.747,442.876,301.93,457.929z"/>
</g>
<path style="fill:#999FED;" d="M301.93,457.929c-2.489,1.213-5.01,2.245-7.574,3.096c-15.244-5.085-28.509-16.052-36.115-31.626
	c-15.052-30.817-2.276-67.995,28.541-83.048c2.489-1.213,5.01-2.245,7.574-3.096c15.244,5.085,28.509,16.041,36.115,31.626
	C345.523,405.698,332.747,442.876,301.93,457.929z"/>
<g>
</g>
<g>
</g>
<g>
</g>
<g>
</g>
<g>
</g>
<g>
</g>
<g>
</g>
<g>
</g>
<g>
</g>
<g>
</g>
<g>
</g>
<g>
</g>
<g>
</g>
<g>
</g>
<g>
</g>
</svg>
