<?xml version="1.0" encoding="UTF-8" standalone="no"?>
<svg
   xmlns:dc="http://purl.org/dc/elements/1.1/"
   xmlns:cc="http://creativecommons.org/ns#"
   xmlns:rdf="http://www.w3.org/1999/02/22-rdf-syntax-ns#"
   xmlns:svg="http://www.w3.org/2000/svg"
   xmlns="http://www.w3.org/2000/svg"
   xmlns:sodipodi="http://sodipodi.sourceforge.net/DTD/sodipodi-0.dtd"
   xmlns:inkscape="http://www.inkscape.org/namespaces/inkscape"
   viewBox="0 0 64 64"
   enable-background="new 0 0 64 64"
   id="svg2"
   version="1.1"
   inkscape:version="0.91 r13725"
   sodipodi:docname="2754.svg">
  <metadata
     id="metadata14">
    <rdf:RDF>
      <cc:Work
         rdf:about="">
        <dc:format>image/svg+xml</dc:format>
        <dc:type
           rdf:resource="http://purl.org/dc/dcmitype/StillImage" />
        <dc:title></dc:title>
      </cc:Work>
    </rdf:RDF>
  </metadata>
  <defs
     id="defs12" />
  <sodipodi:namedview
     pagecolor="#ffffff"
     bordercolor="#666666"
     borderopacity="1"
     objecttolerance="10"
     gridtolerance="10"
     guidetolerance="10"
     inkscape:pageopacity="0"
     inkscape:pageshadow="2"
     inkscape:window-width="1920"
     inkscape:window-height="1028"
     id="namedview10"
     showgrid="false"
     inkscape:zoom="3.6875"
     inkscape:cx="31.728814"
     inkscape:cy="32"
     inkscape:window-x="0"
     inkscape:window-y="30"
     inkscape:window-maximized="1"
     inkscape:current-layer="svg2" />
  <g
     transform="matrix(1.0654588,0,0,1.0654588,1.6440675,0.83050852)"
     id="g3">
    <polygon
       style="fill:#9b9dad;fill-opacity:1"
       points="3,13 29,26 29,58 3,45 "
       id="polygon5" />
    <polygon
       style="fill:#9397a0;fill-opacity:1"
       points="55,13 29,26 29,58 55,45 "
       id="polygon7" />
    <polygon
       style="fill:#54b69f;fill-opacity:1"
       points="55,13 29,26 3,13 28,0 "
       id="polygon9" />
  </g>
  <g
     id="g4"
     style="fill:#ffffff;fill-opacity:1"
     transform="matrix(0.70932518,0,0,0.70932518,10.389178,9.2774774)">
    <ellipse
       cx="28.200001"
       cy="55.862"
       rx="8.0930004"
       ry="8.1540003"
       id="ellipse6"
       style="fill:#ffffff;fill-opacity:1" />
    <path
       d="M 47.33,6.487 C 43.115,2.218 37.955,0.052 31.996,0.052 c -6.01,0 -11.17,2.141 -15.324,6.35 -4.213,4.213 -6.35,9.369 -6.35,15.324 0,1.197 0.971,2.168 2.168,2.168 l 9.753,0 c 1.197,0 2.167,-0.971 2.167,-2.168 0,-2.072 0.722,-3.822 2.185,-5.326 1.521,-1.52 3.288,-2.26 5.401,-2.26 2.062,0 3.804,0.74 5.324,2.26 1.521,1.523 2.262,3.264 2.262,5.326 0,2.113 -0.74,3.879 -2.238,5.381 -1.525,1.482 -3.275,2.205 -5.347,2.205 l -9.753,0 c -1.197,0 -2.168,0.971 -2.168,2.168 l 0,9.752 c 0,1.197 0.971,2.168 2.168,2.168 l 9.752,0 c 5.955,0 11.09,-2.111 15.238,-6.264 4.27,-4.215 6.436,-9.4 6.436,-15.41 0,-5.959 -2.141,-11.09 -6.34,-15.239"
       id="path8"
       style="fill:#ffffff;fill-opacity:1"
       inkscape:connector-curvature="0" />
  </g>
</svg>
