<?xml version="1.0" encoding="UTF-8" standalone="no"?>
<svg
   xmlns:dc="http://purl.org/dc/elements/1.1/"
   xmlns:cc="http://creativecommons.org/ns#"
   xmlns:rdf="http://www.w3.org/1999/02/22-rdf-syntax-ns#"
   xmlns:svg="http://www.w3.org/2000/svg"
   xmlns="http://www.w3.org/2000/svg"
   xmlns:sodipodi="http://sodipodi.sourceforge.net/DTD/sodipodi-0.dtd"
   xmlns:inkscape="http://www.inkscape.org/namespaces/inkscape"
   viewBox="0 0 64 64"
   enable-background="new 0 0 64 64"
   id="svg2"
   version="1.1"
   inkscape:version="0.91 r13725"
   sodipodi:docname="pick.svg">
  <metadata
     id="metadata26">
    <rdf:RDF>
      <cc:Work
         rdf:about="">
        <dc:format>image/svg+xml</dc:format>
        <dc:type
           rdf:resource="http://purl.org/dc/dcmitype/StillImage" />
        <dc:title></dc:title>
      </cc:Work>
    </rdf:RDF>
  </metadata>
  <defs
     id="defs24" />
  <sodipodi:namedview
     pagecolor="#ffffff"
     bordercolor="#666666"
     borderopacity="1"
     objecttolerance="10"
     gridtolerance="10"
     guidetolerance="10"
     inkscape:pageopacity="0"
     inkscape:pageshadow="2"
     inkscape:window-width="1920"
     inkscape:window-height="1028"
     id="namedview22"
     showgrid="false"
     inkscape:zoom="3.6875"
     inkscape:cx="32"
     inkscape:cy="32"
     inkscape:window-x="0"
     inkscape:window-y="30"
     inkscape:window-maximized="1"
     inkscape:current-layer="svg2" />
  <circle
     style="fill:#284d69;fill-opacity:1"
     id="path3365"
     cx="32"
     cy="32"
     r="30.372883" />
  <g
     id="g3354"
     transform="matrix(0.64743202,0,0,0.64743202,11.282431,11.281372)">
    <g
       id="g4"
       style="fill-rule:evenodd">
      <path
         id="path6"
         d="m 55.18,61.49 c 2.308,2.328 8.629,-4.01 6.319,-6.341 l -36.17,-36.16 -6.331,6.33 36.18,36.17"
         inkscape:connector-curvature="0"
         style="fill:#89664c" />
      <path
         id="path8"
         d="m 56.04,60.64 c 1.646,1.654 6.302,-3.02 4.653,-4.682 l -36.16,-36.15 -4.669,4.667 36.18,36.17"
         inkscape:connector-curvature="0"
         style="fill:#ad8366" />
      <path
         id="path10"
         d="M 8.31,14.636 C 5.981,12.328 12.32,6.01 14.653,8.319 l 6.184,6.182 -6.331,6.329 -6.196,-6.194"
         inkscape:connector-curvature="0"
         style="fill:#89664c" />
      <path
         id="path12"
         d="M 9.166,13.777 C 7.511,12.13 12.196,7.475 13.85,9.124 l 6.183,6.18 -4.669,4.668 -6.198,-6.195"
         inkscape:connector-curvature="0"
         style="fill:#ad8366" />
    </g>
    <path
       id="path14"
       d="M 20.888,20.883 C 32.085,9.693 45.229,3.527 54.764,4.074 45.734,-1.24 29.604,3.897 16.754,16.742 3.901,29.588 -1.239,45.723 4.078,54.742 3.533,45.209 9.699,32.066 20.891,20.878"
       inkscape:connector-curvature="0"
       style="fill:#94989b" />
    <path
       id="path16"
       d="M 21.876,21.87 C 33.073,10.681 45.813,4.11 54.764,4.074 46.569,-0.41 31.067,5.363 18.218,18.204 5.365,31.05 -0.412,46.55 4.078,54.742 4.117,45.792 10.687,33.054 21.879,21.865"
       inkscape:connector-curvature="0"
       style="fill:#a6aeb2" />
    <path
       id="path18"
       d="m 27.723,14.973 c 0.88,0.876 0.878,2.312 0,3.185 l -9.563,9.561 c -0.877,0.875 -2.309,0.876 -3.184,10e-4 l -4.784,-4.78 c -0.874,-0.877 -0.874,-2.311 0,-3.187 l 9.562,-9.559 c 0.88,-0.878 2.313,-0.878 3.188,0 l 4.781,4.779"
       inkscape:connector-curvature="0"
       style="fill:#5c6368" />
    <path
       id="path20"
       d="m 26.337,15.867 c 0.789,0.786 0.842,2.02 0.121,2.736 l -7.853,7.851 c -0.72,0.718 -1.95,0.662 -2.735,-0.121 l -4.292,-4.289 c -0.784,-0.787 -0.839,-2.02 -0.121,-2.738 l 7.852,-7.848 c 0.722,-0.721 1.953,-0.667 2.738,0.121 l 4.29,4.288"
       inkscape:connector-curvature="0"
       style="fill:#474d51" />
  </g>
</svg>
