<?xml version="1.0" encoding="UTF-8" standalone="no"?>
<svg
   xmlns:dc="http://purl.org/dc/elements/1.1/"
   xmlns:cc="http://creativecommons.org/ns#"
   xmlns:rdf="http://www.w3.org/1999/02/22-rdf-syntax-ns#"
   xmlns:svg="http://www.w3.org/2000/svg"
   xmlns="http://www.w3.org/2000/svg"
   xmlns:sodipodi="http://sodipodi.sourceforge.net/DTD/sodipodi-0.dtd"
   xmlns:inkscape="http://www.inkscape.org/namespaces/inkscape"
   version="1.1"
   id="Слой_1"
   x="0px"
   y="0px"
   width="48px"
   height="48px"
   viewBox="0 0 48 48"
   enable-background="new 0 0 48 48"
   xml:space="preserve"
   inkscape:version="0.91 r13725"
   sodipodi:docname="rock.svg"><metadata
     id="metadata31"><rdf:RDF><cc:Work
         rdf:about=""><dc:format>image/svg+xml</dc:format><dc:type
           rdf:resource="http://purl.org/dc/dcmitype/StillImage" /><dc:title></dc:title></cc:Work></rdf:RDF></metadata><defs
     id="defs29" /><sodipodi:namedview
     pagecolor="#ffffff"
     bordercolor="#666666"
     borderopacity="1"
     objecttolerance="10"
     gridtolerance="10"
     guidetolerance="10"
     inkscape:pageopacity="0"
     inkscape:pageshadow="2"
     inkscape:window-width="1218"
     inkscape:window-height="480"
     id="namedview27"
     showgrid="false"
     inkscape:zoom="4.9166667"
     inkscape:cx="-30.406779"
     inkscape:cy="24"
     inkscape:window-x="0"
     inkscape:window-y="30"
     inkscape:window-maximized="0"
     inkscape:current-layer="Слой_1" /><g
     id="g3"
     transform="matrix(1.1735724,0,0,1.1735724,-4.177901,-4.165739)"><g
       id="g5"><g
         id="g7"><path
           d="M 30.616,6 C 29.487,6 28.328,6.861 27.466,7.391 25.789,8.418 23.915,8.295 22,8.295 21.528,8.295 21.047,8.269 20.562,8.222 19.597,8.125 18.48,8 17.395,8 c -0.534,0 -1.058,0.028 -1.553,0.106 -2.912,0.457 -2.946,3.7 -4.778,5.425 -0.879,0.825 -1.798,1.23 -2.095,2.47 -0.294,1.228 0.183,2.749 0.316,3.941 0.139,1.237 0.346,2.435 -0.185,3.579 -0.517,1.117 -1.494,1.908 -1.891,3.15 -0.538,1.68 0.092,3.207 0.419,4.845 0.308,1.54 0,2.446 -0.185,3.934 -0.312,2.479 0.916,3.893 3.347,4.37 0.785,0.154 1.604,0.328 2.388,0.441 0.696,0.103 1.618,-0.096 2.224,0.364 0.715,0.534 0.337,1.325 1.433,1.366 0.144,0.006 0.286,0.009 0.427,0.009 2.917,0 5.357,-1.062 8.169,-1.66 0.813,-0.174 1.761,-0.309 2.584,-0.513 1.797,-0.447 3.614,-0.567 5.423,-0.903 1.651,-0.303 2.682,-0.82 3.505,-2.299 0.906,-1.624 2.92,-1.842 3.563,-3.636 0.469,-1.308 0.429,-2.717 0.271,-4.153 -0.157,-1.44 -0.565,-2.065 -1.175,-3.295 -0.705,-1.412 0.118,-1.686 0.817,-2.799 0.436,-0.689 0.871,-1.825 0.672,-2.652 -0.13,-0.552 -0.387,-1.316 -0.703,-1.788 -0.23,-0.349 -0.638,-0.518 -0.786,-0.944 -0.252,-0.713 0.293,-1.57 0.261,-2.309 C 39.797,13.66 38.869,13.21 37.774,12.747 36.336,12.137 35.913,11.495 36.062,10.016 36.34,7.252 33.767,6.865 31.601,6.258 31.281,6.076 30.951,6 30.616,6 l 0,0 z"
           id="path9"
           inkscape:connector-curvature="0"
           style="fill:#b0bec5" /></g></g></g><g
     id="g11"
     transform="matrix(1.1735724,0,0,1.1735724,-4.177901,-4.165739)"><path
       d="m 40.506,32.989 c 0.469,-1.308 0.429,-2.717 0.271,-4.153 -0.157,-1.44 -0.565,-2.065 -1.175,-3.295 -0.705,-1.412 0.118,-1.686 0.817,-2.799 0.436,-0.689 0.871,-1.825 0.672,-2.652 -0.13,-0.552 -0.387,-1.316 -0.703,-1.788 -0.23,-0.349 -0.638,-0.518 -0.786,-0.944 -0.252,-0.713 0.293,-1.57 0.261,-2.309 C 39.797,13.66 38.869,13.21 37.774,12.747 36.336,12.137 35.913,11.495 36.062,10.016 36.34,7.252 33.767,6.865 31.601,6.258 31.434,6.163 31.264,6.1 31.092,6.059 c 1.912,1.086 2.16,5.244 2.041,6.659 -0.068,0.773 -0.39,1.403 -0.308,2.253 0.076,0.789 0.403,1.446 0.408,2.252 0.013,1.904 -0.866,3.04 -0.226,4.936 0.566,1.687 0.805,3.022 -1.207,3.898 -0.727,0.316 -1.525,0.377 -2.178,0.764 -0.855,0.505 -1.027,0.752 -2.02,0.949 -1.518,0.302 -2.945,1.061 -2.931,2.787 0.009,0.936 0.298,1.308 -0.3,2.076 -0.465,0.599 -1.282,1.416 -2.075,1.5 -0.607,0.068 -0.856,-0.43 -1.397,-0.608 -0.638,-0.208 -1.246,0.032 -1.8,0.361 -1.841,1.091 -7.845,3.929 -10.085,2.533 C 8.342,36 7.915,35.428 7.531,34.832 c -0.03,0.197 -0.06,0.4 -0.087,0.618 -0.312,2.479 0.916,3.893 3.347,4.37 0.785,0.154 1.604,0.328 2.388,0.441 0.696,0.103 1.618,-0.096 2.224,0.364 0.715,0.534 0.337,1.325 1.433,1.366 0.143,0.006 0.285,0.009 0.426,0.009 2.917,0 5.357,-1.062 8.169,-1.66 0.813,-0.174 1.761,-0.309 2.584,-0.513 1.797,-0.447 3.614,-0.567 5.423,-0.903 1.651,-0.303 2.682,-0.82 3.505,-2.299 0.906,-1.624 2.919,-1.842 3.563,-3.636 z"
       id="path13"
       inkscape:connector-curvature="0"
       style="fill:#607d8b" /><g
       id="g15"><g
         id="g17"><path
           d="m 21.918,17.763 c -0.014,-0.429 0.281,-1.279 0.575,-1.585 0.481,-0.496 1.342,-0.323 1.916,-0.727 0.618,-0.431 3.128,-2.343 3.681,-1.081 0.399,0.905 -0.571,1.696 0.322,2.482 0.422,0.368 0.789,0.373 0.627,0.983 -0.109,0.418 -0.553,0.779 -0.578,1.21 -0.027,0.408 0.44,0.664 0.441,1.005 0.003,0.6 -0.788,0.707 -1.186,0.926 -0.688,0.383 -1.399,0.911 -1.948,1.477 -0.562,0.576 -1.036,1.207 -1.943,1.163 -1.837,-0.094 -1.034,-2.286 -1.187,-3.44 -0.11,-0.834 -0.695,-1.552 -0.72,-2.413 z"
           id="path19"
           inkscape:connector-curvature="0"
           style="fill:#607d8b" /></g></g><g
       id="g21"><g
         id="g23"><path
           d="m 14.617,25.919 c -0.15,-0.221 -0.284,-0.766 -0.235,-1.023 0.085,-0.425 0.595,-0.624 0.759,-1.03 0.18,-0.436 0.847,-2.289 1.565,-1.814 0.516,0.34 0.273,1.081 1.011,1.192 0.345,0.048 0.539,-0.073 0.661,0.304 0.088,0.257 -0.026,0.598 0.106,0.829 0.126,0.225 0.456,0.2 0.573,0.38 0.204,0.313 -0.173,0.636 -0.309,0.886 -0.232,0.436 -0.427,0.952 -0.521,1.435 -0.102,0.494 -0.134,0.984 -0.623,1.269 -0.998,0.573 -1.319,-0.848 -1.79,-1.402 -0.341,-0.406 -0.891,-0.583 -1.197,-1.026 z"
           id="path25"
           inkscape:connector-curvature="0"
           style="fill:#607d8b" /></g></g></g></svg>