<?xml version="1.0" encoding="UTF-8" standalone="no"?>
<svg
   xmlns:dc="http://purl.org/dc/elements/1.1/"
   xmlns:cc="http://creativecommons.org/ns#"
   xmlns:rdf="http://www.w3.org/1999/02/22-rdf-syntax-ns#"
   xmlns:svg="http://www.w3.org/2000/svg"
   xmlns="http://www.w3.org/2000/svg"
   xmlns:sodipodi="http://sodipodi.sourceforge.net/DTD/sodipodi-0.dtd"
   xmlns:inkscape="http://www.inkscape.org/namespaces/inkscape"
   viewBox="0 0 64 64"
   enable-background="new 0 0 64 64"
   id="svg2"
   version="1.1"
   inkscape:version="0.91 r13725"
   sodipodi:docname="1f504.svg">
  <metadata
     id="metadata16">
    <rdf:RDF>
      <cc:Work
         rdf:about="">
        <dc:format>image/svg+xml</dc:format>
        <dc:type
           rdf:resource="http://purl.org/dc/dcmitype/StillImage" />
        <dc:title></dc:title>
      </cc:Work>
    </rdf:RDF>
  </metadata>
  <defs
     id="defs14" />
  <sodipodi:namedview
     pagecolor="#ffffff"
     bordercolor="#666666"
     borderopacity="1"
     objecttolerance="10"
     gridtolerance="10"
     guidetolerance="10"
     inkscape:pageopacity="0"
     inkscape:pageshadow="2"
     inkscape:window-width="1920"
     inkscape:window-height="1028"
     id="namedview12"
     showgrid="false"
     inkscape:zoom="3.6875"
     inkscape:cx="-40.813559"
     inkscape:cy="32"
     inkscape:window-x="0"
     inkscape:window-y="30"
     inkscape:window-maximized="1"
     inkscape:current-layer="svg2" />
  <circle
     cx="-32"
     cy="32"
     r="30"
     id="circle4"
     transform="scale(-1,1)"
     style="fill:#42ade2" />
  <g
     id="g6"
     transform="matrix(-0.70710678,-0.70710678,-0.70710678,0.70710678,77.254834,32)"
     style="fill:#ffffff">
    <path
       d="m 27.325,20.06 c 1.528,-0.684 3.188,-1.041 4.895,-1.041 6.588,0 11.948,5.129 11.948,11.982 l 7.832,0 C 52,20.23 43.126,11.188 32.22,11.188 c -3.846,0 -7.557,1.086 -10.764,3.17 L 18,11.001 l 0,13.146 13.532,0 -4.207,-4.087"
       id="path8"
       inkscape:connector-curvature="0" />
    <path
       d="m 36.5,42.563 c -1.465,0.662 -3.052,1.016 -4.691,1.016 -6.598,0 -11.966,-5.346 -11.966,-12.58 l -7.843,0 c 0,11.367 8.887,20.848 19.809,20.848 3.708,0 7.249,-1.092 10.331,-3.088 l 3.86,4.24 0,-14.766 -13.442,0 3.942,4.33"
       id="path10"
       inkscape:connector-curvature="0" />
  </g>
</svg>
