<?xml version="1.0" encoding="UTF-8" standalone="no"?>
<svg
   xmlns:dc="http://purl.org/dc/elements/1.1/"
   xmlns:cc="http://creativecommons.org/ns#"
   xmlns:rdf="http://www.w3.org/1999/02/22-rdf-syntax-ns#"
   xmlns:svg="http://www.w3.org/2000/svg"
   xmlns="http://www.w3.org/2000/svg"
   xmlns:sodipodi="http://sodipodi.sourceforge.net/DTD/sodipodi-0.dtd"
   xmlns:inkscape="http://www.inkscape.org/namespaces/inkscape"
   viewBox="0 0 64 64"
   enable-background="new 0 0 64 64"
   id="svg2"
   version="1.1"
   inkscape:version="0.91 r13725"
   sodipodi:docname="tree.svg">
  <metadata
     id="metadata18">
    <rdf:RDF>
      <cc:Work
         rdf:about="">
        <dc:format>image/svg+xml</dc:format>
        <dc:type
           rdf:resource="http://purl.org/dc/dcmitype/StillImage" />
      </cc:Work>
    </rdf:RDF>
  </metadata>
  <defs
     id="defs16" />
  <sodipodi:namedview
     pagecolor="#ffffff"
     bordercolor="#666666"
     borderopacity="1"
     objecttolerance="10"
     gridtolerance="10"
     guidetolerance="10"
     inkscape:pageopacity="0"
     inkscape:pageshadow="2"
     inkscape:window-width="1920"
     inkscape:window-height="1028"
     id="namedview14"
     showgrid="false"
     inkscape:zoom="3.6875"
     inkscape:cx="32"
     inkscape:cy="32"
     inkscape:window-x="0"
     inkscape:window-y="30"
     inkscape:window-maximized="1"
     inkscape:current-layer="svg2" />
  <path
     fill="#947151"
     d="m25 52.13h14v11.875h-14z"
     id="path4" />
  <path
     fill="#71a03a"
     d="m32 34.931l-30 20.2c0 0 14.5 3.439 30 3.439 15.501 0 30-3.439 30-3.439l-30-20.2"
     id="path6" />
  <path
     fill="#76aa3f"
     d="m32 23.62l-25 20.2c0 0 12.08 3.438 25 3.438s25-3.438 25-3.438l-25-20.2"
     id="path8" />
  <path
     fill="#7cb545"
     d="m32 12.31l-20 20.2c0 0 9.667 3.438 20 3.438 10.334 0 20-3.438 20-3.438l-20-20.2"
     id="path10" />
  <path
     fill="#83bf4f"
     d="M32,1L17,20.811c0,0,7.25,3.831,15,3.831s15-3.831,15-3.831L32,1z"
     id="path12" />
</svg>
