<?xml version="1.0" encoding="iso-8859-1"?>
<!-- Generator: Adobe Illustrator 19.0.0, SVG Export Plug-In . SVG Version: 6.00 Build 0)  -->
<svg version="1.1" id="Capa_1" xmlns="http://www.w3.org/2000/svg" xmlns:xlink="http://www.w3.org/1999/xlink" x="0px" y="0px"
	 viewBox="0 0 512 512" style="enable-background:new 0 0 512 512;" xml:space="preserve">
<path style="fill:#4D984E;" d="M339.641,161.789v-0.436c0-5.73-6.089-9.429-11.162-6.764c-15.978,8.392-31.618,18.097-46.234,29.3
	c-12.248,9.387-22.659,18.514-31.133,26.249l-0.052-16.318c0-0.543,0.319-54.612,27.883-82.175c3.137-3.138,3.137-8.224,0-11.362
	c-3.138-3.136-8.224-3.136-11.362,0c-22.85,22.851-29.678,59.082-31.719,79.119c-5.919-6.583-12.664-14.109-19.254-20.396
	c-25.374-24.211-53.646-43.297-81.031-58.093c-5.069-2.739-11.223,0.965-11.223,6.726l0,0c0,2.686,1.417,5.164,3.719,6.548
	c24.554,14.77,50.923,33.213,77.224,56.229c11.714,10.251,23.409,25.021,29.724,32.349l0.08,24.788
	c-0.155,0.916-0.155,1.854,0.009,2.769l0.669,168.631c0.014,4.428,3.608,8.007,8.033,8.007c0.008,0,0.018,0,0.026,0
	c4.437-0.015,8.022-3.622,8.008-8.06l-0.663-166.762c9.248-9,23.052-22.04,40.928-35.568c13.92-10.535,28.626-19.845,43.554-28.086
	C338.109,167.135,339.641,164.58,339.641,161.789z"/>
<g>
	<path style="fill:#80C56E;" d="M0,56.084c39.574,30.142,73.485,70.008,115.271,96.502c27.965,17.73,64.088,23.547,95.682,12.125
		c13.463-37.99-10.938-77.333-42.702-97.221C120.673,37.701,52.158,39.364,0,56.084z"/>
	<path style="fill:#80C56E;" d="M512,105.964c-43.441,25.516-82.365,61.496-127.588,83.076
		c-30.265,14.442-67.291,15.917-97.677,0.607c-8.937-39.829,20.361-76.434,54.708-92.585C392.889,72.868,461.58,82.836,512,105.964z
		"/>
</g>
<g>
	<path style="fill:#66AD66;" d="M168.251,67.49C120.673,37.701,52.158,39.364,0,56.084
		c81.661,16.047,153.355,51.533,210.953,108.626C224.416,126.72,200.015,87.378,168.251,67.49z"/>
	<path style="fill:#66AD66;" d="M287.474,190.003c30.246,14.919,66.916,13.362,96.938-0.964
		c45.223-21.58,84.147-57.56,127.588-83.076C428.074,112.202,352.236,139.715,287.474,190.003z"/>
</g>
<path style="fill:#BA7D60;" d="M477.937,467.848c0-20.784-20.533-43.804-59.983-46.152c-11.803-32.679-43.202-58.885-87.062-54.678
	c-35.059-90.056-224.102-72.76-251.785,52.798c-1.83-0.178-3.683-0.279-5.559-0.283c-28.723-0.055-46.855,20.863-51.377,48.315
	H477.937z"/>
<path style="fill:#A56A58;" d="M286.433,380.726c40.693-4.207,69.825,21.998,80.776,54.678
	c28.603,1.834,46.488,16.294,52.939,32.444h57.789c0-20.784-20.533-43.804-59.983-46.152
	c-11.803-32.679-43.202-58.885-87.061-54.678c-13.533-34.762-50.014-53.512-91.296-56.231
	C259.54,317.83,281.781,337.008,286.433,380.726z"/>
<g>
</g>
<g>
</g>
<g>
</g>
<g>
</g>
<g>
</g>
<g>
</g>
<g>
</g>
<g>
</g>
<g>
</g>
<g>
</g>
<g>
</g>
<g>
</g>
<g>
</g>
<g>
</g>
<g>
</g>
</svg>
