<?xml version="1.0" encoding="iso-8859-1"?>
<!-- Generator: Adobe Illustrator 19.0.0, SVG Export Plug-In . SVG Version: 6.00 Build 0)  -->
<svg version="1.1" id="Capa_1" xmlns="http://www.w3.org/2000/svg" xmlns:xlink="http://www.w3.org/1999/xlink" x="0px" y="0px"
	 viewBox="0 0 512 512" style="enable-background:new 0 0 512 512;" xml:space="preserve">
<path style="fill:#AC6A00;" d="M362.728,343.511c107.695-107.645,141.853-230.793,88.005-284.614s-175.31-17.938-283.004,89.707
	S23.844,377.969,77.691,431.79S255.033,451.156,362.728,343.511z"/>
<g>
	<path style="fill:#E39510;" d="M309.386,250.313c4.042,4.042,8.087,8.084,12.129,12.126c13.411,13.414,32.869,15.184,42.954,3.581
		c0.117-0.134,0.236-0.269,0.352-0.403c10.061-11.631,7.41-31.701-5.419-44.516c-3.893-3.892-7.789-7.782-11.684-11.675
		c-12.842-12.829-31.897-14.471-42.687-3.582c-0.126,0.128-0.249,0.254-0.374,0.381
		C293.899,217.144,295.964,236.899,309.386,250.313z"/>
	<path style="fill:#E39510;" d="M269.487,290.195c4.043,4.041,8.088,8.083,12.132,12.123c13.369,13.36,33.426,15.737,44.357,4.838
		c0.128-0.128,0.252-0.252,0.38-0.38c10.905-10.927,8.528-30.973-4.839-44.337c-4.043-4.041-8.086-8.085-12.129-12.126
		c-13.374-13.373-33.031-15.349-43.968-4.446c-0.127,0.127-0.253,0.253-0.38,0.38C254.13,257.18,256.108,276.827,269.487,290.195z"
		/>
	<path style="fill:#E39510;" d="M450.733,58.897c0.104-0.096,0.21-0.193,0.314-0.288c8.845-8.491,10.199-20.216,3.39-27.05
		c-2.116-2.115-4.232-4.23-6.348-6.345c-6.811-6.809-21.729-8.465-33.444-2.716c-0.134,0.069-0.268,0.138-0.401,0.206
		c-11.696,5.754-13.786,18.549-4.592,27.629c2.722,2.693,5.442,5.386,8.161,8.076C426.992,67.505,441.874,67.369,450.733,58.897z"/>
	<path style="fill:#E39510;" d="M347.72,209.426c3.895,3.892,7.79,7.784,11.684,11.675c12.963,12.965,31.335,13.861,40.518,1.804
		c0.108-0.139,0.215-0.278,0.322-0.417c9.163-12.083,6.575-31.52-5.272-43.323c-3.611-3.596-7.222-7.195-10.835-10.793
		c-11.869-11.815-29.881-12.952-40.407-2.286c-0.122,0.126-0.242,0.249-0.363,0.375C332.868,177.15,334.743,196.466,347.72,209.426z
		"/>
</g>
<path id="SVGCleanerId_0" style="fill:#E39510;" d="M487.119,94.923c0.076-0.123,0.153-0.246,0.23-0.37
	c6.418-10.786,5.636-24.433-1.174-31.273c-2.116-2.115-4.232-4.23-6.348-6.345c-6.819-6.821-19.548-6.459-28.78,1.672
	c-0.104,0.095-0.209,0.193-0.314,0.288c-9.211,8.133-9.499,22.692-0.346,31.713c2.71,2.676,5.418,5.351,8.125,8.024
	C467.645,107.67,480.691,105.697,487.119,94.923z"/>
<g>
	<path id="SVGCleanerId_0_1_" style="fill:#E39510;" d="M487.119,94.923c0.076-0.123,0.153-0.246,0.23-0.37
		c6.418-10.786,5.636-24.433-1.174-31.273c-2.116-2.115-4.232-4.23-6.348-6.345c-6.819-6.821-19.548-6.459-28.78,1.672
		c-0.104,0.095-0.209,0.193-0.314,0.288c-9.211,8.133-9.499,22.692-0.346,31.713c2.71,2.676,5.418,5.351,8.125,8.024
		C467.645,107.67,480.691,105.697,487.119,94.923z"/>
</g>
<g>
	<path style="fill:#E39510;" d="M384.137,168.372c3.613,3.599,7.225,7.197,10.835,10.793c12.064,12.031,28.957,11.907,37.232-0.23
		c0.097-0.139,0.195-0.278,0.293-0.418c8.258-12.16,6.042-30.29-4.445-40.68c-3.209-3.179-6.419-6.361-9.632-9.545
		c-10.508-10.403-27.096-10.958-37.268-0.791c-0.115,0.119-0.234,0.24-0.349,0.358C370.656,138.043,372.056,156.345,384.137,168.372
		z"/>
	<path style="fill:#E39510;" d="M418.419,128.293c3.212,3.184,6.423,6.364,9.632,9.545c10.767,10.689,25.872,9.549,33.238-2.184
		c0.087-0.134,0.175-0.27,0.262-0.403c7.349-11.749,5.76-27.924-3.038-36.617c-2.708-2.672-5.415-5.349-8.125-8.024
		c-8.812-8.697-23.632-8.713-33.373,0.622c-0.111,0.11-0.223,0.22-0.334,0.331C406.962,100.907,407.63,117.614,418.419,128.293z"/>
	<path style="fill:#E39510;" d="M300.935,162.705c-3.901-3.895-7.805-7.79-11.708-11.685c-12.867-12.837-32.678-15.254-44.053-4.961
		c-0.131,0.119-0.263,0.24-0.395,0.361c-11.345,10.314-9.481,29.859,3.945,43.266c4.044,4.041,8.09,8.084,12.135,12.125
		c13.421,13.417,33.102,15.396,43.801,4.415c0.125-0.127,0.249-0.254,0.374-0.381C315.708,194.832,313.799,175.54,300.935,162.705z"
		/>
	<path style="fill:#E39510;" d="M379.788,90.004c-3.226-3.199-6.454-6.398-9.683-9.6c-10.557-10.461-28.736-12.637-40.545-4.153
		c-0.136,0.1-0.27,0.199-0.406,0.3c-11.785,8.5-11.45,25.694,0.677,37.752c3.627,3.611,7.253,7.22,10.879,10.827
		c12.111,12.073,30.168,13.146,40.093,2.73c0.116-0.118,0.234-0.24,0.349-0.358C391.056,117.059,390.336,100.459,379.788,90.004z"/>
	<path style="fill:#E39510;" d="M417.815,58.409c-2.72-2.689-5.439-5.383-8.161-8.076c-8.846-8.747-25.577-10.659-37.405-3.414
		c-0.136,0.087-0.271,0.172-0.406,0.258c-11.804,7.254-12.582,22.489-1.738,33.227c3.229,3.203,6.456,6.403,9.683,9.6
		c10.825,10.751,27.464,11.2,36.893,1.558c0.11-0.11,0.223-0.22,0.334-0.331C426.427,81.566,426.652,67.161,417.815,58.409z"/>
	<path style="fill:#E39510;" d="M260.86,201.81c-4.044-4.042-8.09-8.083-12.134-12.125c-13.377-13.366-33.311-15.628-44.243-4.725
		c-0.128,0.128-0.254,0.253-0.379,0.379c-10.905,10.926-8.644,30.853,4.728,44.223c4.043,4.042,8.087,8.086,12.13,12.128
		c13.374,13.373,33.139,15.462,44.078,4.558c0.127-0.127,0.252-0.252,0.38-0.38C276.326,234.935,274.239,215.176,260.86,201.81z"/>
	<path style="fill:#E39510;" d="M220.961,241.69c-4.042-4.043-8.088-8.085-12.13-12.128c-13.414-13.418-32.967-15.284-43.286-3.943
		c-0.12,0.131-0.24,0.262-0.361,0.394c-10.297,11.367-7.88,31.173,4.964,44.032c3.896,3.902,7.795,7.802,11.69,11.703
		c12.842,12.856,32.141,14.767,43.158,4.097c0.128-0.125,0.253-0.248,0.381-0.374C236.365,274.775,234.385,255.104,220.961,241.69z"
		/>
	<path style="fill:#E39510;" d="M340.71,125.13c-3.624-3.609-7.251-7.217-10.879-10.827c-11.913-11.851-31.13-14.22-42.789-4.728
		c-0.134,0.111-0.268,0.223-0.403,0.334c-11.636,9.514-10.409,28.145,2.588,41.111c3.903,3.895,7.805,7.791,11.708,11.685
		c12.991,12.978,32.08,14.596,42.432,3.755c0.122-0.126,0.243-0.25,0.363-0.375C354.06,155.213,352.613,136.977,340.71,125.13z"/>
	<path style="fill:#E39510;" d="M424.211,325.802c0.109-0.141,0.221-0.284,0.33-0.424c9.421-12.267,6.004-33.137-6.79-45.935
		c12.936,12.95,30.564,13.102,38.551-0.205c0.094-0.154,0.188-0.307,0.281-0.46c7.968-13.331,4.227-34.002-7.568-45.754
		c12.012,11.995,27.729,10.634,34.343-3.254c0.077-0.16,0.157-0.319,0.235-0.479c6.6-13.91,2.897-33.584-7.531-43.904
		c10.709,10.627,24.283,7.876,29.603-5.941c0.063-0.159,0.127-0.316,0.191-0.476c5.31-13.83,1.932-31.739-6.825-40.373
		c-2.695-2.655-5.392-5.312-8.09-7.971c-8.778-8.645-21.716-6.799-29.391,4.626c-0.088,0.135-0.174,0.269-0.262,0.403
		c-7.654,11.435-5.543,29.627,5.191,40.246c-10.456-10.341-25.458-9.262-33.984,2.618c-0.097,0.139-0.196,0.279-0.293,0.418
		c-8.5,11.899-6.017,31.339,6.02,43.331c-11.823-11.777-28.617-11.65-37.98,0.221c-0.108,0.139-0.214,0.277-0.322,0.417
		c-9.334,11.901-6.788,31.922,6.17,44.874c-12.817-12.82-31.088-13.667-41.269-2.161c-0.117,0.134-0.235,0.268-0.352,0.403
		c-10.15,11.541-7.872,31.507,5.552,44.927c4.041,4.042,8.083,8.085,12.123,12.127C395.551,336.484,414.768,338.045,424.211,325.802
		z"/>
	<path style="fill:#E39510;" d="M242.346,104.261c-3.91-3.898-7.821-7.795-11.732-11.695c-12.891-12.844-33.44-16.009-45.367-6.304
		c-0.139,0.114-0.275,0.226-0.413,0.34c-11.907,9.727-10.22,29.057,3.203,42.459c4.048,4.04,8.093,8.084,12.14,12.124
		c13.43,13.42,33.316,15.608,44.605,5.232c0.132-0.121,0.263-0.24,0.395-0.361C256.433,135.651,255.24,117.115,242.346,104.261z"/>
	<path style="fill:#E39510;" d="M286.231,70.925c-3.639-3.619-7.278-7.241-10.922-10.86c-11.958-11.884-32.357-15.458-45.127-7.102
		c-0.147,0.098-0.295,0.196-0.442,0.295c-12.746,8.372-12.146,26.34,0.873,39.31c3.912,3.898,7.822,7.796,11.732,11.695
		c13.018,12.99,32.798,15.311,44.294,5.647c0.134-0.111,0.269-0.223,0.403-0.334C298.509,99.882,298.188,82.816,286.231,70.925z"/>
	<path style="fill:#E39510;" d="M331.275,41.894c-3.243-3.216-6.487-6.435-9.732-9.655c-10.61-10.517-30.377-14.301-43.815-7.465
		c-0.155,0.08-0.309,0.162-0.463,0.242c-13.416,6.85-14.121,22.959-1.954,35.049c3.642,3.621,7.283,7.24,10.922,10.86
		c12.159,12.11,31.357,14.354,42.924,5.626c0.136-0.1,0.271-0.2,0.406-0.3C341.102,67.495,341.88,52.416,331.275,41.894z"/>
	<path style="fill:#E39510;" d="M376.938,17.926c-2.73-2.708-5.463-5.417-8.197-8.127c-8.879-8.798-27.555-12.629-41.485-7.48
		c-0.16,0.062-0.32,0.124-0.48,0.185c-13.912,5.161-16.13,18.94-5.235,29.734c3.245,3.22,6.489,6.439,9.732,9.655
		c10.884,10.812,29.056,12.832,40.569,5.283c0.136-0.087,0.271-0.172,0.406-0.258C383.741,39.344,385.816,26.735,376.938,17.926z"/>
</g>
<g>
	<path style="fill:#F3D035;" d="M297.782,224.014c2.706,3.854,3.811,4.701,16.828,17.716c20.729,20.734,49.933,11.09,49.432-15.061
		c-2.655-3.836-3.625-4.552-16.322-17.244C327.692,189.418,297.779,199.09,297.782,224.014z"/>
	<path style="fill:#F3D035;" d="M410.91,37.7c13.147,13.033,34.276,6.244,39.823-9.846c-0.881-0.88-1.762-1.761-2.641-2.64
		c-10.62-10.62-37.227-7.132-43.007,6.722C407.026,33.857,408.969,35.779,410.91,37.7z"/>
	<path style="fill:#F3D035;" d="M384.137,168.372c-18.58-18.497-47.324-8.631-47.543,15.383c2.396,3.332,3.074,3.819,15.904,16.637
		c20.109,20.112,46.809,8.905,46.344-16.655C396.617,180.621,396.044,180.23,384.137,168.372z"/>
	<path style="fill:#F3D035;" d="M451.606,77.924c12.725,12.591,30.547,3.295,32.986-16.226c-1.589-1.588-3.177-3.175-4.765-4.763
		c-10.572-10.575-32.524-2.606-35.729,13.575C446.603,72.983,449.106,75.455,451.606,77.924z"/>
	<path style="fill:#F3D035;" d="M418.419,128.293c-10.508-10.402-27.096-10.958-37.268-0.791c-0.115,0.119-0.234,0.24-0.349,0.358
		c-4.294,4.309-6.512,10.074-6.735,16.201c1.842,2.403,2.058,2.502,13.999,14.395c18.054,18.006,42.512,7.283,42.548-17.714
		C429.041,138.712,428.988,138.764,418.419,128.293z"/>
	<path style="fill:#F3D035;" d="M421.146,117.128c15.575,15.463,37.036,5.272,38.105-17.686c-0.956-1.043,1.098,0.998-8.863-8.833
		c-13.637-13.458-38.591-4.646-40.442,15.289C411.024,107.144,410.586,106.667,421.146,117.128z"/>
	<path style="fill:#F3D035;" d="M289.227,151.021c-20.056-20.009-51.493-12.06-51.882,12.691c2.575,3.597,3.579,4.369,16.608,17.389
		c20.798,20.793,50.826,11.506,51.087-13.581C302.639,164.201,301.84,163.604,289.227,151.021z"/>
	<path style="fill:#F3D035;" d="M333.804,104.42c18.539,18.48,45.352,9.187,47.337-12.97c-0.994-1.129-0.37-0.47-11.035-11.047
		c-16.528-16.379-47.101-10.276-49.436,10.722C322.054,92.79,321.719,92.396,333.804,104.42z"/>
	<path style="fill:#F3D035;" d="M372.882,69.294c15.934,15.824,40.376,7.957,44.056-11.754c-2.427-2.4-4.854-4.804-7.283-7.207
		c-13.772-13.618-42.81-8.822-46.75,9.056C363.749,60.248,360.802,57.321,372.882,69.294z"/>
	<path style="fill:#F3D035;" d="M248.725,189.684c-20.755-20.738-51.607-12.071-51.545,13.507c2.72,3.891,3.814,4.734,16.874,17.79
		c20.769,20.766,51.41,11.684,51.45-13.655C262.876,203.596,261.96,202.911,248.725,189.684z"/>
	<path style="fill:#F3D035;" d="M294.029,141.996c19.996,19.976,48.804,10.62,49.679-13.468c-1.793-2.318-1.98-2.388-13.878-14.227
		c-18.67-18.573-49.975-11.396-51.152,11.824C280.833,128.98,281.291,129.292,294.029,141.996z"/>
	<path style="fill:#F3D035;" d="M193.27,120.478c20.879,20.863,51.665,11.926,52.675-12.082c-2.115-2.801-2.454-2.993-15.331-15.829
		c-20.084-20.013-52.954-13.723-53.747,10.804C179.285,106.692,179.899,107.128,193.27,120.478z"/>
	<path style="fill:#F3D035;" d="M235.44,83.552c20.12,20.075,50.726,12.106,52.954-10.269c-1.302-1.557-1.194-1.406-13.084-13.218
		c-18.775-18.66-52.55-14.075-54.694,8.322C222.483,70.748,222.517,70.671,235.44,83.552z"/>
	<path style="fill:#F3D035;" d="M279.326,50.216c18.598,18.522,48.115,11.659,52.105-8.161c-0.61-0.614-9.274-9.207-9.888-9.817
		c-16.593-16.448-50.579-13.957-54.508,5.67C268.073,39.063,267.262,38.215,279.326,50.216z"/>
	<path style="fill:#F3D035;" d="M324.368,21.185c16.207,16.099,43.802,10.89,50.059-5.748c-1.894-1.878-3.789-3.756-5.685-5.636
		c-13.718-13.592-46.92-13.271-53.118,2.71C318.54,15.403,321.455,18.295,324.368,21.185z"/>
</g>
<path style="fill:#A4A530;" d="M415.488,331.117c-147.905-60.823-255.884-28.212-255.884-28.212L69.417,488.88
	c180.126,82.721,310.571-78.837,352.378-135.056C427.601,346.015,424.489,334.818,415.488,331.117z"/>
<path style="fill:#898A25;" d="M415.488,331.117c-1.466-0.603-2.922-1.181-4.379-1.766l-7.913,10.641
	c-54.283,72.997-134.466,148.682-233.602,148.671c-28.502-0.003-58.592-6.27-90.056-20.649L69.419,488.88
	c180.126,82.721,310.571-78.837,352.378-135.056C427.601,346.015,424.489,334.818,415.488,331.117z"/>
<path style="fill:#B8BA38;" d="M183.882,64.732c29.752,55.18,94.459,227.331-114.463,424.148
	C-97.24,322.3,98.173,115.64,156.925,60.397C165.16,52.652,178.516,54.782,183.882,64.732z"/>
<path style="fill:#A4A530;" d="M183.882,64.732c-5.365-9.949-18.721-12.08-26.958-4.335c-0.372,0.35-0.753,0.71-1.136,1.072
	l7.691,14.264c31.457,58.34,83.706,213.694-109.757,396.087c4.834,5.728,10.049,11.418,15.696,17.061
	C278.341,292.063,213.633,119.911,183.882,64.732z"/>
<g>
</g>
<g>
</g>
<g>
</g>
<g>
</g>
<g>
</g>
<g>
</g>
<g>
</g>
<g>
</g>
<g>
</g>
<g>
</g>
<g>
</g>
<g>
</g>
<g>
</g>
<g>
</g>
<g>
</g>
</svg>
