<?xml version="1.0" encoding="iso-8859-1"?>
<!-- Generator: Adobe Illustrator 19.0.0, SVG Export Plug-In . SVG Version: 6.00 Build 0)  -->
<svg version="1.1" id="Layer_1" xmlns="http://www.w3.org/2000/svg" xmlns:xlink="http://www.w3.org/1999/xlink" x="0px" y="0px"
	 viewBox="0 0 511.996 511.996" style="enable-background:new 0 0 511.996 511.996;" xml:space="preserve">
<g>
	<path style="fill:#B78349;" d="M316.905,325.168l55.258,8.042l-54.966,9.845c-4.927,0.883-9.635-2.396-10.518-7.323
		c-0.883-4.926,2.396-9.635,7.322-10.518C314.975,325.04,315.978,325.037,316.905,325.168z"/>
	<path style="fill:#B78349;" d="M194.779,438.205l75.536,5.562l-74.735,12.309c-4.909,0.809-9.543-2.515-10.352-7.424
		s2.515-9.543,7.424-10.352C193.357,438.185,194.1,438.16,194.779,438.205z"/>
	<path style="fill:#B78349;" d="M155.555,176.435l-45.487-61.494l58.526,49.246c3.806,3.202,4.295,8.884,1.092,12.691
		c-3.202,3.807-8.884,4.295-12.691,1.092C156.458,177.516,155.959,176.975,155.555,176.435z"/>
</g>
<path style="fill:#CC9758;" d="M480.327,184.586L184.58,480.321c-42.231,42.231-110.688,42.231-152.906,0.012
	C17.803,466.451,8.489,449.754,3.73,432.08c-9.732-36.125-0.417-76.304,27.943-104.665l117.509-117.497l73.692-73.704l87.968-87.956
	l16.577-16.577L480.327,184.586z"/>
<path style="fill:#B78349;" d="M319.764,116.046L3.73,432.08c-9.732-36.125-0.417-76.304,27.943-104.665l117.509-117.497
	l73.692-73.704l87.968-87.956L319.764,116.046z"/>
<circle style="fill:#F2C386;" cx="403.872" cy="108.123" r="108.123"/>
<g>
	<path style="fill:#DDAF78;" d="M459.709,151.493c-1.24,0-2.494-0.351-3.605-1.084c-3.023-1.994-3.858-6.062-1.864-9.088
		c15.688-23.786,12.443-55.68-7.716-75.839c-23.519-23.516-61.777-23.515-85.293,0c-5.109,5.109-9.209,11.003-12.185,17.52
		c-1.505,3.295-5.395,4.745-8.692,3.242c-3.295-1.505-4.745-5.397-3.242-8.692c3.629-7.944,8.621-15.126,14.842-21.346
		c28.629-28.63,75.214-28.63,103.843,0c24.543,24.543,28.494,63.377,9.393,92.339C463.93,150.456,461.839,151.493,459.709,151.493z"
		/>
	<path style="fill:#DDAF78;" d="M403.8,181.615c-18.99,0-37.688-7.406-51.846-21.565c-11.725-11.725-19.191-27.259-21.024-43.743
		c-0.4-3.601,2.194-6.843,5.795-7.244c3.591-0.397,6.843,2.193,7.244,5.795c1.525,13.731,7.494,26.151,17.26,35.916
		c18.696,18.694,47.029,23.056,70.501,10.853c3.214-1.672,7.175-0.42,8.846,2.794c1.671,3.214,0.421,7.175-2.794,8.846
		C426.984,178.881,415.338,181.615,403.8,181.615z"/>
	<path style="fill:#DDAF78;" d="M403.876,140.287c-8.239,0-16.478-3.135-22.75-9.407c-12.545-12.545-12.545-32.957,0-45.501
		c12.544-12.544,32.958-12.544,45.501,0c2.562,2.562,2.562,6.714,0.001,9.276c-2.562,2.562-6.714,2.562-9.276,0
		c-7.43-7.429-19.52-7.429-26.951,0c-7.429,7.43-7.429,19.519,0,26.949c7.43,7.429,19.52,7.43,26.951,0
		c2.561-2.563,6.716-2.561,9.276,0c2.561,2.562,2.561,6.714-0.001,9.276C420.355,137.151,412.115,140.287,403.876,140.287z"/>
</g>
<path style="fill:#CC9758;" d="M222.887,79.933v142.543c0,20.358-16.506,36.852-36.852,36.852c-2.397,0-4.735-0.227-7.001-0.668
	c-17.007-3.268-29.851-18.223-29.851-36.184V79.933H222.887z"/>
<path style="fill:#B78349;" d="M179.034,79.933V258.66c-17.007-3.268-29.851-18.223-29.851-36.184V79.933H179.034z"/>
<circle style="fill:#F2C386;" cx="186.027" cy="79.93" r="36.851"/>
<path style="fill:#DDAF78;" d="M186.03,87.561c-4.208,0-7.632-3.424-7.632-7.632s3.424-7.632,7.632-7.632s7.632,3.424,7.632,7.632
	C193.662,84.137,190.239,87.561,186.03,87.561z"/>
<g>
	<path style="fill:#AD7945;" d="M337.126,269.146c-1.679,0-3.357-0.64-4.639-1.921c-2.561-2.562-2.561-6.714,0.001-9.276
		l14.173-14.172c2.561-2.562,6.716-2.561,9.276,0c2.561,2.562,2.561,6.714-0.001,9.276l-14.173,14.172
		C340.485,268.505,338.804,269.146,337.126,269.146z"/>
	<path style="fill:#AD7945;" d="M223.745,382.527c-1.679,0-3.357-0.64-4.638-1.921c-2.562-2.562-2.562-6.714,0-9.276l91.479-91.478
		c2.561-2.562,6.717-2.561,9.275,0c2.562,2.562,2.562,6.715,0,9.276l-91.478,91.478
		C227.103,381.887,225.424,382.527,223.745,382.527z"/>
	<path style="fill:#AD7945;" d="M123.891,482.381c-1.679,0-3.357-0.64-4.638-1.921c-2.562-2.562-2.562-6.714,0-9.276l72.153-72.153
		c2.562-2.561,6.714-2.561,9.276,0c2.562,2.562,2.562,6.715,0,9.276l-72.153,72.153
		C127.248,481.741,125.569,482.381,123.891,482.381z"/>
	<path style="fill:#AD7945;" d="M224.891,302.503c-1.679,0-3.357-0.64-4.638-1.921c-2.562-2.562-2.562-6.714,0-9.276l64.924-64.924
		c2.559-2.562,6.716-2.562,9.275,0c2.562,2.562,2.562,6.714,0,9.276l-64.924,64.924
		C228.249,301.863,226.569,302.503,224.891,302.503z"/>
	<path style="fill:#AD7945;" d="M113.441,413.953c-1.679,0-3.357-0.64-4.638-1.921c-2.562-2.562-2.562-6.714,0-9.276l85.037-85.037
		c2.562-2.561,6.714-2.561,9.276,0c2.562,2.562,2.562,6.715,0,9.276l-85.037,85.037C116.798,413.313,115.12,413.953,113.441,413.953
		z"/>
	<path style="fill:#AD7945;" d="M62.406,464.988c-1.679,0-3.357-0.64-4.638-1.921c-2.562-2.562-2.562-6.715,0-9.276l23.978-23.978
		c2.562-2.561,6.714-2.561,9.276,0c2.562,2.562,2.562,6.714,0,9.276l-23.978,23.978C65.764,464.347,64.086,464.988,62.406,464.988z"
		/>
	<path style="fill:#AD7945;" d="M130.978,309.088c-1.679,0-3.357-0.64-4.638-1.921c-2.562-2.562-2.562-6.714,0-9.276l13.529-13.529
		c2.562-2.561,6.714-2.561,9.276,0c2.562,2.562,2.562,6.714,0,9.276l-13.529,13.529
		C134.335,308.447,132.656,309.088,130.978,309.088z"/>
	<path style="fill:#AD7945;" d="M252.643,187.421c-1.679,0-3.357-0.64-4.638-1.921c-2.562-2.562-2.562-6.714,0-9.276l13.529-13.528
		c2.559-2.562,6.714-2.561,9.276,0c2.561,2.562,2.561,6.714-0.001,9.276L257.28,185.5C256,186.781,254.321,187.421,252.643,187.421z
		"/>
	<path style="fill:#AD7945;" d="M39.357,400.708c-1.679,0-3.357-0.64-4.638-1.921c-2.562-2.562-2.562-6.714,0-9.276l61.343-61.343
		c2.562-2.561,6.714-2.561,9.276,0c2.562,2.562,2.562,6.714,0,9.276l-61.343,61.343C42.714,400.067,41.036,400.708,39.357,400.708z"
		/>
	<path style="fill:#AD7945;" d="M175.505,232.327c-3.623,0-6.559-2.936-6.559-6.559V170.31c0-3.623,2.936-6.559,6.559-6.559
		s6.559,2.936,6.559,6.559v55.457C182.065,229.391,179.127,232.327,175.505,232.327z"/>
</g>
<g>
</g>
<g>
</g>
<g>
</g>
<g>
</g>
<g>
</g>
<g>
</g>
<g>
</g>
<g>
</g>
<g>
</g>
<g>
</g>
<g>
</g>
<g>
</g>
<g>
</g>
<g>
</g>
<g>
</g>
</svg>
