<?xml version="1.0" encoding="iso-8859-1"?>
<!-- Generator: Adobe Illustrator 18.0.0, SVG Export Plug-In . SVG Version: 6.00 Build 0)  -->
<!DOCTYPE svg PUBLIC "-//W3C//DTD SVG 1.1//EN" "http://www.w3.org/Graphics/SVG/1.1/DTD/svg11.dtd">
<svg version="1.1" id="Capa_1" xmlns="http://www.w3.org/2000/svg" xmlns:xlink="http://www.w3.org/1999/xlink" x="0px" y="0px"
	 viewBox="0 0 385.413 385.413" style="enable-background:new 0 0 385.413 385.413;" xml:space="preserve">
<g>
	<g id="XMLID_14_">
		<g>
			<polygon style="fill:#B3B3B3;" points="375.23,132.206 385.16,193.596 343.96,193.596 334.02,132.196 			"/>
			<polygon style="fill:#999999;" points="385.16,193.596 351.27,303.126 310.06,303.126 343.96,193.596 			"/>
			<polygon style="fill:#E6E6E6;" points="307.04,38.046 375.23,132.206 334.02,132.196 265.84,38.036 			"/>
			<polygon style="fill:#808080;" points="351.27,303.126 260.48,377.626 219.27,377.626 310.06,303.126 			"/>
			<path style="fill:#CCCCCC;" d="M192.93,159.016l-35.69-9.84l-25.01,44.42l19.04,34.43l39.25,2.22l1.7-2.71l21.33-33.94
				l-18.26-33.93L192.93,159.016z M334.02,132.196l9.94,61.4l-33.9,109.53l-90.79,74.5h-89.26l-58.35-31.38l-69.07-107.7
				l-2.34-78.53l51.54-101.13l66.36-44.93l91.08-4.37h0.01l56.6,28.45L334.02,132.196z"/>
			<polygon style="fill:#F2F2F2;" points="307.04,38.046 265.84,38.036 209.24,9.586 246.86,7.786 			"/>
			<polygon style="fill:#999999;" points="192.93,159.016 173.44,193.596 132.23,193.596 157.24,149.176 			"/>
			<polygon style="fill:#808080;" points="173.44,193.596 192.22,227.536 190.52,230.246 151.27,228.026 132.23,193.596 			"/>
		</g>
		<g>
		</g>
	</g>
</g>
<g>
</g>
<g>
</g>
<g>
</g>
<g>
</g>
<g>
</g>
<g>
</g>
<g>
</g>
<g>
</g>
<g>
</g>
<g>
</g>
<g>
</g>
<g>
</g>
<g>
</g>
<g>
</g>
<g>
</g>
</svg>
